<?xml version="1.0" encoding="UTF-8" standalone="no"?>
<svg xmlns="http://www.w3.org/2000/svg" version="1.2" baseProfile="tiny" viewBox="0.00 0.00 512.00 273.00" width="512.00" height="273.00">
<path fill="#171a1c" d="M 77.32 138.80 L 92.85 137.73 L 92.85 20.92 L 77.32 21.99 Z"/>
<path fill="#171a1c" d="M 148.05 190.13 L 169.71 194.71 L 169.71 152.24 L 148.05 147.66 Z"/>
<path fill="#171a1c" d="M 156.74 194.56 L 152.31 194.09 L 147.76 194.40 L 144.31 195.42 L 142.87 196.86 L 143.84 198.34 L 146.95 199.46 L 151.37 199.93 L 155.92 199.62 L 159.38 198.60 L 160.82 197.16 L 159.85 195.68 Z"/>
<path fill="#171a1c" d="M 148.05 190.13 L 133.98 197.18 L 155.64 201.76 L 169.71 194.71 Z"/>
<path fill="#171a1c" d="M 133.98 197.18 L 148.05 190.13 L 148.05 147.66 L 133.98 154.71 Z"/>
<path fill="#171a1c" d="M 92.85 137.73 L 168.20 153.66 L 168.20 36.85 L 92.85 20.92 Z"/>
<path fill="#171a1c" d="M 169.71 194.71 L 155.64 201.76 L 155.64 159.29 L 169.71 152.24 Z"/>
<path fill="#171a1c" d="M 148.05 147.66 L 169.71 152.24 L 155.64 159.29 L 133.98 154.71 Z"/>
<path fill="#171a1c" d="M 51.18 189.94 L 86.03 197.31 L 86.03 158.02 L 51.18 150.65 Z"/>
<path fill="#171a1c" d="M 133.98 197.18 L 133.98 154.71 L 155.64 159.29 L 155.64 201.76 Z"/>
<path fill="#171a1c" d="M 102.94 156.67 L 87.03 157.60 L 90.24 244.97 L 106.15 244.04 Z"/>
<path fill="#171a1c" d="M 117.95 157.51 L 102.94 156.67 L 106.15 244.04 L 121.16 244.88 Z"/>
<path fill="#171a1c" d="M 87.03 157.60 L 73.38 160.12 L 76.58 247.49 L 90.24 244.97 Z"/>
<path fill="#171a1c" d="M 24.88 203.13 L 51.18 189.94 L 51.18 150.65 L 24.88 163.84 Z"/>
<path fill="#171a1c" d="M 51.18 189.94 L 24.88 203.13 L 59.73 210.50 L 86.03 197.31 Z"/>
<path fill="#171a1c" d="M 129.09 159.95 L 117.95 157.51 L 121.16 244.88 L 132.29 247.32 Z"/>
<path fill="#171a1c" d="M 153.95 202.28 L 175.61 206.86 L 175.61 164.38 L 153.95 159.80 Z"/>
<path fill="#171a1c" d="M 73.38 160.12 L 64.68 163.72 L 67.88 251.10 L 76.58 247.49 Z"/>
<path fill="#171a1c" d="M 162.64 206.70 L 158.21 206.24 L 153.66 206.55 L 150.21 207.56 L 148.77 209.00 L 149.74 210.49 L 152.85 211.61 L 157.27 212.08 L 161.82 211.76 L 165.28 210.75 L 166.72 209.31 L 165.75 207.83 Z"/>
<path fill="#171a1c" d="M 153.95 202.28 L 139.88 209.33 L 161.54 213.91 L 175.61 206.86 Z"/>
<path fill="#171a1c" d="M 139.88 209.33 L 153.95 202.28 L 153.95 159.80 L 139.88 166.86 Z"/>
<path fill="#171a1c" d="M 16.15 169.47 L 77.32 138.80 L 77.32 21.99 L 16.15 52.66 Z"/>
<path fill="#171a1c" d="M 33.75 192.95 L 24.36 192.14 L 24.69 206.89 L 30.39 207.38 Z"/>
<path fill="#171a1c" d="M 24.36 192.14 L 15.29 193.27 L 19.18 207.57 L 24.69 206.89 Z"/>
<path fill="#171a1c" d="M 121.16 245.94 L 103.47 245.05 L 85.28 246.57 L 71.47 250.09 L 65.73 254.67 L 69.61 259.09 L 82.06 262.15 L 99.74 263.04 L 117.93 261.52 L 131.74 258.00 L 137.48 253.42 L 133.60 249.01 Z"/>
<path fill="#171a1c" d="M 51.18 150.65 L 86.03 158.02 L 59.73 171.21 L 24.88 163.84 Z"/>
<path fill="#171a1c" d="M 121.16 244.88 L 106.15 244.04 L 90.24 244.97 L 76.58 247.49 L 67.88 251.10 L 65.86 255.08 L 70.92 258.64 L 82.06 261.09 L 97.07 261.93 L 112.97 260.99 L 126.63 258.48 L 135.33 254.87 L 137.35 250.89 L 132.29 247.32 Z"/>
<path fill="#171a1c" d="M 134.15 163.52 L 129.09 159.95 L 132.29 247.32 L 137.35 250.89 Z"/>
<path fill="#171a1c" d="M 168.20 153.66 L 171.51 158.72 L 171.51 41.91 L 168.20 36.85 Z"/>
<path fill="#171a1c" d="M 39.87 195.41 L 33.75 192.95 L 30.39 207.38 L 34.10 208.88 Z"/>
<path fill="#171a1c" d="M 15.29 193.27 L 10.00 195.92 L 15.97 209.19 L 19.18 207.57 Z"/>
<path fill="#171a1c" d="M 33.75 161.10 L 24.36 160.28 L 24.36 192.14 L 33.75 192.95 Z"/>
<path fill="#171a1c" d="M 24.36 160.28 L 15.29 161.41 L 15.29 193.27 L 24.36 192.14 Z"/>
<path fill="#171a1c" d="M 86.03 197.31 L 59.73 210.50 L 59.73 171.21 L 86.03 158.02 Z"/>
<path fill="#171a1c" d="M 171.51 158.72 L 168.20 153.66 L 92.85 137.73 L 77.32 138.80 L 16.15 169.47 L 19.45 174.53 L 94.80 190.46 L 110.34 189.38 Z"/>
<path fill="#171a1c" d="M 30.39 207.38 L 24.69 206.89 L 19.18 207.57 L 15.97 209.19 L 16.28 211.10 L 19.99 212.60 L 25.69 213.09 L 31.20 212.41 L 34.41 210.79 L 34.10 208.88 Z"/>
<path fill="#171a1c" d="M 64.68 163.72 L 62.66 167.70 L 65.86 255.08 L 67.88 251.10 Z"/>
<path fill="#171a1c" d="M 39.87 163.56 L 33.75 161.10 L 33.75 192.95 L 39.87 195.41 Z"/>
<path fill="#171a1c" d="M 175.61 206.86 L 161.54 213.91 L 161.54 171.44 L 175.61 164.38 Z"/>
<path fill="#171a1c" d="M 40.38 198.57 L 39.87 195.41 L 34.10 208.88 L 34.41 210.79 Z"/>
<path fill="#171a1c" d="M 15.29 161.41 L 10.00 164.07 L 10.00 195.92 L 15.29 193.27 Z"/>
<path fill="#171a1c" d="M 153.95 159.80 L 175.61 164.38 L 161.54 171.44 L 139.88 166.86 Z"/>
<path fill="#171a1c" d="M 10.00 195.92 L 10.51 199.08 L 16.28 211.10 L 15.97 209.19 Z"/>
<path fill="#171a1c" d="M 33.75 192.95 L 24.36 192.14 L 15.29 193.27 L 10.00 195.92 L 10.51 199.08 L 16.62 201.54 L 26.01 202.36 L 35.08 201.23 L 40.38 198.57 L 39.87 195.41 Z"/>
<path fill="#171a1c" d="M 39.87 195.41 L 40.38 198.57 L 35.08 201.23 L 26.01 202.36 L 16.62 201.54 L 10.51 199.08 L 10.00 195.92 L 15.29 193.27 L 24.36 192.14 L 33.75 192.95 Z"/>
<path fill="#171a1c" d="M 139.88 209.33 L 139.88 166.86 L 161.54 171.44 L 161.54 213.91 Z"/>
<path fill="#171a1c" d="M 24.88 203.13 L 24.88 163.84 L 59.73 171.21 L 59.73 210.50 Z"/>
<path fill="#171a1c" d="M 35.08 201.23 L 40.38 198.57 L 34.41 210.79 L 31.20 212.41 Z"/>
<path fill="#171a1c" d="M 40.38 166.71 L 39.87 163.56 L 39.87 195.41 L 40.38 198.57 Z"/>
<path fill="#171a1c" d="M 10.51 199.08 L 16.62 201.54 L 19.99 212.60 L 16.28 211.10 Z"/>
<path fill="#171a1c" d="M 132.13 167.49 L 134.15 163.52 L 137.35 250.89 L 135.33 254.87 Z"/>
<path fill="#171a1c" d="M 10.00 164.07 L 10.51 167.22 L 10.51 199.08 L 10.00 195.92 Z"/>
<path fill="#171a1c" d="M 171.39 80.67 L 168.64 86.83 L 171.39 90.23 L 174.14 84.07 Z"/>
<path fill="#171a1c" d="M 26.01 202.36 L 35.08 201.23 L 31.20 212.41 L 25.69 213.09 Z"/>
<path fill="#171a1c" d="M 16.62 201.54 L 26.01 202.36 L 25.69 213.09 L 19.99 212.60 Z"/>
<path fill="#171a1c" d="M 174.14 84.07 L 171.39 90.23 L 191.17 94.41 L 193.92 88.25 Z"/>
<path fill="#171a1c" d="M 62.66 167.70 L 67.72 171.27 L 70.92 258.64 L 65.86 255.08 Z"/>
<path fill="#171a1c" d="M 39.87 163.56 L 40.38 166.71 L 35.08 169.37 L 26.01 170.50 L 16.62 169.68 L 10.51 167.22 L 10.00 164.07 L 15.29 161.41 L 24.36 160.28 L 33.75 161.10 Z"/>
<path fill="#171a1c" d="M 171.39 80.67 L 174.14 84.07 L 193.92 88.25 L 191.17 84.85 Z"/>
<path fill="#171a1c" d="M 129.09 159.95 L 134.15 163.52 L 132.13 167.49 L 123.43 171.10 L 109.77 173.62 L 93.86 174.55 L 78.85 173.71 L 67.72 171.27 L 62.66 167.70 L 64.68 163.72 L 73.38 160.12 L 87.03 157.60 L 102.94 156.67 L 117.95 157.51 Z"/>
<path fill="#171a1c" d="M 35.08 169.37 L 40.38 166.71 L 40.38 198.57 L 35.08 201.23 Z"/>
<path fill="#171a1c" d="M 171.39 90.23 L 168.64 86.83 L 188.42 91.01 L 191.17 94.41 Z"/>
<path fill="#171a1c" d="M 10.51 167.22 L 16.62 169.68 L 16.62 201.54 L 10.51 199.08 Z"/>
<path fill="#171a1c" d="M 168.64 86.83 L 171.39 80.67 L 191.17 84.85 L 188.42 91.01 Z"/>
<path fill="#171a1c" d="M 193.92 88.25 L 191.17 94.41 L 188.42 91.01 L 191.17 84.85 Z"/>
<path fill="#171a1c" d="M 26.01 170.50 L 35.08 169.37 L 35.08 201.23 L 26.01 202.36 Z"/>
<path fill="#171a1c" d="M 16.62 169.68 L 26.01 170.50 L 26.01 202.36 L 16.62 201.54 Z"/>
<path fill="#171a1c" d="M 123.43 171.10 L 132.13 167.49 L 135.33 254.87 L 126.63 258.48 Z"/>
<path fill="#171a1c" d="M 67.72 171.27 L 78.85 173.71 L 82.06 261.09 L 70.92 258.64 Z"/>
<path fill="#171a1c" d="M 109.77 173.62 L 123.43 171.10 L 126.63 258.48 L 112.97 260.99 Z"/>
<path fill="#171a1c" d="M 78.85 173.71 L 93.86 174.55 L 97.07 261.93 L 82.06 261.09 Z"/>
<path fill="#171a1c" d="M 110.34 72.57 L 94.80 73.65 L 19.45 57.72 L 16.15 52.66 L 77.32 21.99 L 92.85 20.92 L 168.20 36.85 L 171.51 41.91 Z"/>
<path fill="#171a1c" d="M 93.86 174.55 L 109.77 173.62 L 112.97 260.99 L 97.07 261.93 Z"/>
<path fill="#171a1c" d="M 19.45 174.53 L 16.15 169.47 L 16.15 52.66 L 19.45 57.72 Z"/>
<path fill="#171a1c" d="M 10.70 168.57 L 12.23 167.80 L 12.23 61.61 L 10.70 62.38 Z"/>
<path fill="#171a1c" d="M 171.51 158.72 L 110.34 189.38 L 110.34 72.57 L 171.51 41.91 Z"/>
<path fill="#171a1c" d="M 50.91 56.34 L 51.85 55.20 L 48.80 54.56 L 45.98 55.30 L 47.28 56.41 Z"/>
<path fill="#171a1c" d="M 58.18 11.97 L 55.81 12.34 L 55.81 15.14 L 58.18 16.51 L 59.65 14.55 Z"/>
<path fill="#171a1c" d="M 35.26 12.92 L 33.72 14.56 L 33.72 17.37 L 35.26 17.47 L 36.21 14.72 Z"/>
<path fill="#171a1c" d="M 48.80 54.56 L 51.85 55.20 L 51.85 10.60 L 48.80 9.96 Z"/>
<path fill="#171a1c" d="M 45.98 55.30 L 48.80 54.56 L 48.80 9.96 L 45.98 10.70 Z"/>
<path fill="#171a1c" d="M 10.70 168.57 L 100.18 187.49 L 101.71 186.72 L 12.23 167.80 Z"/>
<path fill="#171a1c" d="M 51.85 55.20 L 50.91 56.34 L 50.91 11.74 L 51.85 10.60 Z"/>
<path fill="#171a1c" d="M 47.28 56.41 L 45.98 55.30 L 45.98 10.70 L 47.28 11.81 Z"/>
<path fill="#171a1c" d="M 50.91 56.34 L 47.28 56.41 L 47.28 11.81 L 50.91 11.74 Z"/>
<path fill="#171a1c" d="M 36.21 14.72 L 35.26 17.47 L 63.52 23.44 L 64.47 20.69 Z"/>
<path fill="#171a1c" d="M 55.81 15.14 L 55.81 12.34 L 38.68 20.92 L 38.68 23.73 Z"/>
<path fill="#171a1c" d="M 58.18 16.51 L 55.81 15.14 L 38.68 23.73 L 41.05 25.10 Z"/>
<path fill="#171a1c" d="M 35.26 12.92 L 36.21 14.72 L 64.47 20.69 L 63.52 18.90 Z"/>
<path fill="#171a1c" d="M 35.26 17.47 L 33.72 17.37 L 61.98 23.35 L 63.52 23.44 Z"/>
<path fill="#171a1c" d="M 55.81 12.34 L 58.18 11.97 L 41.05 20.55 L 38.68 20.92 Z"/>
<path fill="#171a1c" d="M 59.65 14.55 L 58.18 16.51 L 41.05 25.10 L 42.52 23.14 Z"/>
<path fill="#171a1c" d="M 33.72 14.56 L 35.26 12.92 L 63.52 18.90 L 61.98 20.54 Z"/>
<path fill="#171a1c" d="M 58.18 11.97 L 59.65 14.55 L 42.52 23.14 L 41.05 20.55 Z"/>
<path fill="#171a1c" d="M 33.72 17.37 L 33.72 14.56 L 61.98 20.54 L 61.98 23.35 Z"/>
<path fill="#171a1c" d="M 47.28 11.81 L 45.98 10.70 L 48.80 9.96 L 51.85 10.60 L 50.91 11.74 Z"/>
<path fill="#171a1c" d="M 133.06 119.56 L 191.17 90.43 L 191.17 88.84 L 133.06 117.97 Z"/>
<path fill="#171a1c" d="M 64.47 20.69 L 63.52 23.44 L 61.98 23.35 L 61.98 20.54 L 63.52 18.90 Z"/>
<path fill="#171a1c" d="M 94.80 190.46 L 19.45 174.53 L 19.45 57.72 L 94.80 73.65 Z"/>
<path fill="#171a1c" d="M 101.71 186.72 L 101.71 80.53 L 12.23 61.61 L 12.23 167.80 Z"/>
<path fill="#171a1c" d="M 42.52 23.14 L 41.05 25.10 L 38.68 23.73 L 38.68 20.92 L 41.05 20.55 Z"/>
<path fill="#171a1c" d="M 100.18 187.49 L 10.70 168.57 L 10.70 62.38 L 100.18 81.30 Z"/>
<path fill="#171a1c" d="M 73.47 68.53 L 74.41 67.39 L 71.37 66.74 L 68.55 67.49 L 69.85 68.59 Z"/>
<path fill="#171a1c" d="M 80.75 24.15 L 78.38 24.52 L 78.38 27.33 L 80.75 28.70 L 82.21 26.73 Z"/>
<path fill="#171a1c" d="M 57.83 25.11 L 56.29 26.75 L 56.29 29.55 L 57.83 29.65 L 58.78 26.90 Z"/>
<path fill="#171a1c" d="M 71.37 66.74 L 74.41 67.39 L 74.41 22.78 L 71.37 22.14 Z"/>
<path fill="#171a1c" d="M 68.55 67.49 L 71.37 66.74 L 71.37 22.14 L 68.55 22.88 Z"/>
<path fill="#171a1c" d="M 100.18 81.30 L 10.70 62.38 L 12.23 61.61 L 101.71 80.53 Z"/>
<path fill="#171a1c" d="M 74.41 67.39 L 73.47 68.53 L 73.47 23.93 L 74.41 22.78 Z"/>
<path fill="#171a1c" d="M 69.85 68.59 L 68.55 67.49 L 68.55 22.88 L 69.85 23.99 Z"/>
<path fill="#171a1c" d="M 110.34 189.38 L 94.80 190.46 L 94.80 73.65 L 110.34 72.57 Z"/>
<path fill="#171a1c" d="M 73.47 68.53 L 69.85 68.59 L 69.85 23.99 L 73.47 23.93 Z"/>
<path fill="#171a1c" d="M 58.78 26.90 L 57.83 29.65 L 86.08 35.62 L 87.04 32.88 Z"/>
<path fill="#171a1c" d="M 78.38 27.33 L 78.38 24.52 L 61.25 33.10 L 61.25 35.91 Z"/>
<path fill="#171a1c" d="M 80.75 28.70 L 78.38 27.33 L 61.25 35.91 L 63.62 37.28 Z"/>
<path fill="#171a1c" d="M 57.83 25.11 L 58.78 26.90 L 87.04 32.88 L 86.08 31.08 Z"/>
<path fill="#171a1c" d="M 57.83 29.65 L 56.29 29.55 L 84.55 35.53 L 86.08 35.62 Z"/>
<path fill="#171a1c" d="M 78.38 24.52 L 80.75 24.15 L 63.62 32.74 L 61.25 33.10 Z"/>
<path fill="#171a1c" d="M 82.21 26.73 L 80.75 28.70 L 63.62 37.28 L 65.09 35.32 Z"/>
<path fill="#171a1c" d="M 56.29 26.75 L 57.83 25.11 L 86.08 31.08 L 84.55 32.72 Z"/>
<path fill="#171a1c" d="M 80.75 24.15 L 82.21 26.73 L 65.09 35.32 L 63.62 32.74 Z"/>
<path fill="#171a1c" d="M 56.29 29.55 L 56.29 26.75 L 84.55 32.72 L 84.55 35.53 Z"/>
<path fill="#171a1c" d="M 69.85 23.99 L 68.55 22.88 L 71.37 22.14 L 74.41 22.78 L 73.47 23.93 Z"/>
<path fill="#171a1c" d="M 100.18 187.49 L 100.18 81.30 L 101.71 80.53 L 101.71 186.72 Z"/>
<path fill="#171a1c" d="M 87.04 32.88 L 86.08 35.62 L 84.55 35.53 L 84.55 32.72 L 86.08 31.08 Z"/>
<path fill="#171a1c" d="M 65.09 35.32 L 63.62 37.28 L 61.25 35.91 L 61.25 33.10 L 63.62 32.74 Z"/>
<path fill="#171a1c" d="M 191.17 90.43 L 502.00 156.15 L 502.00 154.55 L 191.17 88.84 Z"/>
<path fill="#171a1c" d="M 191.17 90.43 L 133.06 119.56 L 443.89 185.28 L 502.00 156.15 Z"/>
<path fill="#171a1c" d="M 191.17 88.84 L 502.00 154.55 L 443.89 183.69 L 133.06 117.97 Z"/>
<path fill="#171a1c" d="M 133.06 119.56 L 133.06 117.97 L 443.89 183.69 L 443.89 185.28 Z"/>
<path fill="#171a1c" d="M 502.00 156.15 L 443.89 185.28 L 443.89 183.69 L 502.00 154.55 Z"/>
<path fill="#171a1c" d="M 77.32 138.80 L 92.85 137.73 L 92.85 20.92 L 77.32 21.99 Z"/>
<path fill="#9ea19d" d="M 148.05 190.13 L 169.71 194.71 L 169.71 152.24 L 148.05 147.66 Z"/>
<path fill="#171a1c" d="M 156.74 194.56 L 152.31 194.09 L 147.76 194.40 L 144.31 195.42 L 142.87 196.86 L 143.84 198.34 L 146.95 199.46 L 151.37 199.93 L 155.92 199.62 L 159.38 198.60 L 160.82 197.16 L 159.85 195.68 Z"/>
<path fill="#9ea19d" d="M 148.05 190.13 L 133.98 197.18 L 155.64 201.76 L 169.71 194.71 Z"/>
<path fill="#9ea19d" d="M 133.98 197.18 L 148.05 190.13 L 148.05 147.66 L 133.98 154.71 Z"/>
<path fill="#9ea19d" d="M 92.85 137.73 L 168.20 153.66 L 168.20 36.85 L 92.85 20.92 Z"/>
<path fill="#9ea19d" d="M 169.71 194.71 L 155.64 201.76 L 155.64 159.29 L 169.71 152.24 Z"/>
<path fill="#9ea19d" d="M 148.05 147.66 L 169.71 152.24 L 155.64 159.29 L 133.98 154.71 Z"/>
<path fill="#a68b3c" d="M 51.18 189.94 L 86.03 197.31 L 86.03 158.02 L 51.18 150.65 Z"/>
<path fill="#9ea19d" d="M 133.98 197.18 L 133.98 154.71 L 155.64 159.29 L 155.64 201.76 Z"/>
<path fill="#171a1c" d="M 102.94 156.67 L 87.03 157.60 L 90.24 244.97 L 106.15 244.04 Z"/>
<path fill="#171a1c" d="M 117.95 157.51 L 102.94 156.67 L 106.15 244.04 L 121.16 244.88 Z"/>
<path fill="#171a1c" d="M 87.03 157.60 L 73.38 160.12 L 76.58 247.49 L 90.24 244.97 Z"/>
<path fill="#a68b3c" d="M 24.88 203.13 L 51.18 189.94 L 51.18 150.65 L 24.88 163.84 Z"/>
<path fill="#a68b3c" d="M 51.18 189.94 L 24.88 203.13 L 59.73 210.50 L 86.03 197.31 Z"/>
<path fill="#171a1c" d="M 129.09 159.95 L 117.95 157.51 L 121.16 244.88 L 132.29 247.32 Z"/>
<path fill="#9ea19d" d="M 153.95 202.28 L 175.61 206.86 L 175.61 164.38 L 153.95 159.80 Z"/>
<path fill="#171a1c" d="M 73.38 160.12 L 64.68 163.72 L 67.88 251.10 L 76.58 247.49 Z"/>
<path fill="#171a1c" d="M 162.64 206.70 L 158.21 206.24 L 153.66 206.55 L 150.21 207.56 L 148.77 209.00 L 149.74 210.49 L 152.85 211.61 L 157.27 212.08 L 161.82 211.76 L 165.28 210.75 L 166.72 209.31 L 165.75 207.83 Z"/>
<path fill="#9ea19d" d="M 153.95 202.28 L 139.88 209.33 L 161.54 213.91 L 175.61 206.86 Z"/>
<path fill="#9ea19d" d="M 139.88 209.33 L 153.95 202.28 L 153.95 159.80 L 139.88 166.86 Z"/>
<path fill="#9ea19d" d="M 16.15 169.47 L 77.32 138.80 L 77.32 21.99 L 16.15 52.66 Z"/>
<path fill="#171a1c" d="M 33.75 192.95 L 24.36 192.14 L 24.69 206.89 L 30.39 207.38 Z"/>
<path fill="#6d716f" d="M 24.36 192.14 L 15.29 193.27 L 19.18 207.57 L 24.69 206.89 Z"/>
<path fill="#171a1c" d="M 121.16 245.94 L 103.47 245.05 L 85.28 246.57 L 71.47 250.09 L 65.73 254.67 L 69.61 259.09 L 82.06 262.15 L 99.74 263.04 L 117.93 261.52 L 131.74 258.00 L 137.48 253.42 L 133.60 249.01 Z"/>
<path fill="#a68b3c" d="M 51.18 150.65 L 86.03 158.02 L 59.73 171.21 L 24.88 163.84 Z"/>
<path fill="#171a1c" d="M 121.16 244.88 L 106.15 244.04 L 90.24 244.97 L 76.58 247.49 L 67.88 251.10 L 65.86 255.08 L 70.92 258.64 L 82.06 261.09 L 97.07 261.93 L 112.97 260.99 L 126.63 258.48 L 135.33 254.87 L 137.35 250.89 L 132.29 247.32 Z"/>
<path fill="#171a1c" d="M 134.15 163.52 L 129.09 159.95 L 132.29 247.32 L 137.35 250.89 Z"/>
<path fill="#9ea19d" d="M 168.20 153.66 L 171.51 158.72 L 171.51 41.91 L 168.20 36.85 Z"/>
<path fill="#6d716f" d="M 39.87 195.41 L 33.75 192.95 L 30.39 207.38 L 34.10 208.88 Z"/>
<path fill="#9ea19d" d="M 15.29 193.27 L 10.00 195.92 L 15.97 209.19 L 19.18 207.57 Z"/>
<path fill="#6d716f" d="M 33.75 161.10 L 24.36 160.28 L 24.36 192.14 L 33.75 192.95 Z"/>
<path fill="#171a1c" d="M 24.36 160.28 L 15.29 161.41 L 15.29 193.27 L 24.36 192.14 Z"/>
<path fill="#a68b3c" d="M 86.03 197.31 L 59.73 210.50 L 59.73 171.21 L 86.03 158.02 Z"/>
<path fill="#9ea19d" d="M 171.51 158.72 L 168.20 153.66 L 92.85 137.73 L 77.32 138.80 L 16.15 169.47 L 19.45 174.53 L 94.80 190.46 L 110.34 189.38 Z"/>
<path fill="#9ea19d" d="M 30.39 207.38 L 24.69 206.89 L 19.18 207.57 L 15.97 209.19 L 16.28 211.10 L 19.99 212.60 L 25.69 213.09 L 31.20 212.41 L 34.41 210.79 L 34.10 208.88 Z"/>
<path fill="#171a1c" d="M 64.68 163.72 L 62.66 167.70 L 65.86 255.08 L 67.88 251.10 Z"/>
<path fill="#9ea19d" d="M 39.87 163.56 L 33.75 161.10 L 33.75 192.95 L 39.87 195.41 Z"/>
<path fill="#9ea19d" d="M 175.61 206.86 L 161.54 213.91 L 161.54 171.44 L 175.61 164.38 Z"/>
<path fill="#6d716f" d="M 40.38 198.57 L 39.87 195.41 L 34.10 208.88 L 34.41 210.79 Z"/>
<path fill="#9ea19d" d="M 15.29 161.41 L 10.00 164.07 L 10.00 195.92 L 15.29 193.27 Z"/>
<path fill="#9ea19d" d="M 153.95 159.80 L 175.61 164.38 L 161.54 171.44 L 139.88 166.86 Z"/>
<path fill="#cdcecb" d="M 10.00 195.92 L 10.51 199.08 L 16.28 211.10 L 15.97 209.19 Z"/>
<path fill="#9ea19d" d="M 33.75 192.95 L 24.36 192.14 L 15.29 193.27 L 10.00 195.92 L 10.51 199.08 L 16.62 201.54 L 26.01 202.36 L 35.08 201.23 L 40.38 198.57 L 39.87 195.41 Z"/>
<path fill="#9ea19d" d="M 39.87 195.41 L 40.38 198.57 L 35.08 201.23 L 26.01 202.36 L 16.62 201.54 L 10.51 199.08 L 10.00 195.92 L 15.29 193.27 L 24.36 192.14 L 33.75 192.95 Z"/>
<path fill="#9ea19d" d="M 139.88 209.33 L 139.88 166.86 L 161.54 171.44 L 161.54 213.91 Z"/>
<path fill="#a68b3c" d="M 24.88 203.13 L 24.88 163.84 L 59.73 171.21 L 59.73 210.50 Z"/>
<path fill="#171a1c" d="M 35.08 201.23 L 40.38 198.57 L 34.41 210.79 L 31.20 212.41 Z"/>
<path fill="#9ea19d" d="M 40.38 166.71 L 39.87 163.56 L 39.87 195.41 L 40.38 198.57 Z"/>
<path fill="#cdcecb" d="M 10.51 199.08 L 16.62 201.54 L 19.99 212.60 L 16.28 211.10 Z"/>
<path fill="#171a1c" d="M 132.13 167.49 L 134.15 163.52 L 137.35 250.89 L 135.33 254.87 Z"/>
<path fill="#9ea19d" d="M 10.00 164.07 L 10.51 167.22 L 10.51 199.08 L 10.00 195.92 Z"/>
<path fill="#9ea19d" d="M 171.39 80.67 L 168.64 86.83 L 171.39 90.23 L 174.14 84.07 Z"/>
<path fill="#6d716f" d="M 26.01 202.36 L 35.08 201.23 L 31.20 212.41 L 25.69 213.09 Z"/>
<path fill="#9ea19d" d="M 16.62 201.54 L 26.01 202.36 L 25.69 213.09 L 19.99 212.60 Z"/>
<path fill="#6d716f" d="M 169.72 140.89 L 149.53 151.01 L 149.53 128.81 L 169.72 118.69 Z"/>
<path fill="#171a1c" d="M 174.14 84.07 L 171.39 90.23 L 191.17 94.41 L 193.92 88.25 Z"/>
<path fill="#171a1c" d="M 62.66 167.70 L 67.72 171.27 L 70.92 258.64 L 65.86 255.08 Z"/>
<path fill="#9ea19d" d="M 39.87 163.56 L 40.38 166.71 L 35.08 169.37 L 26.01 170.50 L 16.62 169.68 L 10.51 167.22 L 10.00 164.07 L 15.29 161.41 L 24.36 160.28 L 33.75 161.10 Z"/>
<path fill="#cdcecb" d="M 171.39 80.67 L 174.14 84.07 L 193.92 88.25 L 191.17 84.85 Z"/>
<path fill="#171a1c" d="M 129.09 159.95 L 134.15 163.52 L 132.13 167.49 L 123.43 171.10 L 109.77 173.62 L 93.86 174.55 L 78.85 173.71 L 67.72 171.27 L 62.66 167.70 L 64.68 163.72 L 73.38 160.12 L 87.03 157.60 L 102.94 156.67 L 117.95 157.51 Z"/>
<path fill="#9ea19d" d="M 35.08 169.37 L 40.38 166.71 L 40.38 198.57 L 35.08 201.23 Z"/>
<path fill="#cdcecb" d="M 171.39 90.23 L 168.64 86.83 L 188.42 91.01 L 191.17 94.41 Z"/>
<path fill="#9ea19d" d="M 10.51 167.22 L 16.62 169.68 L 16.62 201.54 L 10.51 199.08 Z"/>
<path fill="#171a1c" d="M 168.64 86.83 L 171.39 80.67 L 191.17 84.85 L 188.42 91.01 Z"/>
<path fill="#9ea19d" d="M 193.92 88.25 L 191.17 94.41 L 188.42 91.01 L 191.17 84.85 Z"/>
<path fill="#171a1c" d="M 26.01 170.50 L 35.08 169.37 L 35.08 201.23 L 26.01 202.36 Z"/>
<path fill="#6d716f" d="M 16.62 169.68 L 26.01 170.50 L 26.01 202.36 L 16.62 201.54 Z"/>
<path fill="#171a1c" d="M 123.43 171.10 L 132.13 167.49 L 135.33 254.87 L 126.63 258.48 Z"/>
<path fill="#171a1c" d="M 67.72 171.27 L 78.85 173.71 L 82.06 261.09 L 70.92 258.64 Z"/>
<path fill="#6d716f" d="M 169.72 84.39 L 149.53 94.51 L 149.53 74.34 L 169.72 64.22 Z"/>
<path fill="#171a1c" d="M 109.77 173.62 L 123.43 171.10 L 126.63 258.48 L 112.97 260.99 Z"/>
<path fill="#171a1c" d="M 78.85 173.71 L 93.86 174.55 L 97.07 261.93 L 82.06 261.09 Z"/>
<path fill="#9ea19d" d="M 110.34 72.57 L 94.80 73.65 L 19.45 57.72 L 16.15 52.66 L 77.32 21.99 L 92.85 20.92 L 168.20 36.85 L 171.51 41.91 Z"/>
<path fill="#171a1c" d="M 93.86 174.55 L 109.77 173.62 L 112.97 260.99 L 97.07 261.93 Z"/>
<path fill="#9ea19d" d="M 19.45 174.53 L 16.15 169.47 L 16.15 52.66 L 19.45 57.72 Z"/>
<path fill="#a68b3c" d="M 10.70 168.57 L 12.23 167.80 L 12.23 61.61 L 10.70 62.38 Z"/>
<path fill="#9ea19d" d="M 171.51 158.72 L 110.34 189.38 L 110.34 72.57 L 171.51 41.91 Z"/>
<path fill="#9ea19d" d="M 50.91 56.34 L 51.85 55.20 L 48.80 54.56 L 45.98 55.30 L 47.28 56.41 Z"/>
<path fill="#9ea19d" d="M 58.18 11.97 L 55.81 12.34 L 55.81 15.14 L 58.18 16.51 L 59.65 14.55 Z"/>
<path fill="#6d716f" d="M 169.72 102.55 L 117.24 128.86 L 117.24 118.78 L 169.72 92.46 Z"/>
<path fill="#9ea19d" d="M 35.26 12.92 L 33.72 14.56 L 33.72 17.37 L 35.26 17.47 L 36.21 14.72 Z"/>
<path fill="#6d716f" d="M 144.15 153.71 L 119.93 165.85 L 119.93 149.71 L 144.15 137.56 Z"/>
<path fill="#9ea19d" d="M 48.80 54.56 L 51.85 55.20 L 51.85 10.60 L 48.80 9.96 Z"/>
<path fill="#6d716f" d="M 45.98 55.30 L 48.80 54.56 L 48.80 9.96 L 45.98 10.70 Z"/>
<path fill="#a68b3c" d="M 10.70 168.57 L 100.18 187.49 L 101.71 186.72 L 12.23 167.80 Z"/>
<path fill="#9ea19d" d="M 51.85 55.20 L 50.91 56.34 L 50.91 11.74 L 51.85 10.60 Z"/>
<path fill="#9ea19d" d="M 47.28 56.41 L 45.98 55.30 L 45.98 10.70 L 47.28 11.81 Z"/>
<path fill="#6d716f" d="M 50.91 56.34 L 47.28 56.41 L 47.28 11.81 L 50.91 11.74 Z"/>
<path fill="#171a1c" d="M 36.21 14.72 L 35.26 17.47 L 63.52 23.44 L 64.47 20.69 Z"/>
<path fill="#9ea19d" d="M 55.81 15.14 L 55.81 12.34 L 38.68 20.92 L 38.68 23.73 Z"/>
<path fill="#cdcecb" d="M 58.18 16.51 L 55.81 15.14 L 38.68 23.73 L 41.05 25.10 Z"/>
<path fill="#cdcecb" d="M 35.26 12.92 L 36.21 14.72 L 64.47 20.69 L 63.52 18.90 Z"/>
<path fill="#cdcecb" d="M 35.26 17.47 L 33.72 17.37 L 61.98 23.35 L 63.52 23.44 Z"/>
<path fill="#9ea19d" d="M 55.81 12.34 L 58.18 11.97 L 41.05 20.55 L 38.68 20.92 Z"/>
<path fill="#171a1c" d="M 59.65 14.55 L 58.18 16.51 L 41.05 25.10 L 42.52 23.14 Z"/>
<path fill="#9ea19d" d="M 33.72 14.56 L 35.26 12.92 L 63.52 18.90 L 61.98 20.54 Z"/>
<path fill="#cdcecb" d="M 58.18 11.97 L 59.65 14.55 L 42.52 23.14 L 41.05 20.55 Z"/>
<path fill="#9ea19d" d="M 33.72 17.37 L 33.72 14.56 L 61.98 20.54 L 61.98 23.35 Z"/>
<path fill="#9ea19d" d="M 47.28 11.81 L 45.98 10.70 L 48.80 9.96 L 51.85 10.60 L 50.91 11.74 Z"/>
<path fill="#666a8e" d="M 133.06 119.56 L 191.17 90.43 L 191.17 88.84 L 133.06 117.97 Z"/>
<path fill="#8a90ae" d="M 223.11 99.96 L 250.05 105.65 L 245.40 107.98 L 218.47 102.29 Z"/>
<path fill="#9ea19d" d="M 64.47 20.69 L 63.52 23.44 L 61.98 23.35 L 61.98 20.54 L 63.52 18.90 Z"/>
<path fill="#9ea19d" d="M 94.80 190.46 L 19.45 174.53 L 19.45 57.72 L 94.80 73.65 Z"/>
<path fill="#a68b3c" d="M 101.71 186.72 L 101.71 80.53 L 12.23 61.61 L 12.23 167.80 Z"/>
<path fill="#9ea19d" d="M 42.52 23.14 L 41.05 25.10 L 38.68 23.73 L 38.68 20.92 L 41.05 20.55 Z"/>
<path fill="#a68b3c" d="M 100.18 187.49 L 10.70 168.57 L 10.70 62.38 L 100.18 81.30 Z"/>
<path fill="#9ea19d" d="M 73.47 68.53 L 74.41 67.39 L 71.37 66.74 L 68.55 67.49 L 69.85 68.59 Z"/>
<path fill="#9ea19d" d="M 80.75 24.15 L 78.38 24.52 L 78.38 27.33 L 80.75 28.70 L 82.21 26.73 Z"/>
<path fill="#8a90ae" d="M 211.49 105.78 L 238.43 111.48 L 233.78 113.81 L 206.84 108.11 Z"/>
<path fill="#9ea19d" d="M 57.83 25.11 L 56.29 26.75 L 56.29 29.55 L 57.83 29.65 L 58.78 26.90 Z"/>
<path fill="#9ea19d" d="M 71.37 66.74 L 74.41 67.39 L 74.41 22.78 L 71.37 22.14 Z"/>
<path fill="#6d716f" d="M 68.55 67.49 L 71.37 66.74 L 71.37 22.14 L 68.55 22.88 Z"/>
<path fill="#a68b3c" d="M 100.18 81.30 L 10.70 62.38 L 12.23 61.61 L 101.71 80.53 Z"/>
<path fill="#9ea19d" d="M 74.41 67.39 L 73.47 68.53 L 73.47 23.93 L 74.41 22.78 Z"/>
<path fill="#9ea19d" d="M 69.85 68.59 L 68.55 67.49 L 68.55 22.88 L 69.85 23.99 Z"/>
<path fill="#171a1c" d="M 110.34 189.38 L 94.80 190.46 L 94.80 73.65 L 110.34 72.57 Z"/>
<path fill="#6d716f" d="M 73.47 68.53 L 69.85 68.59 L 69.85 23.99 L 73.47 23.93 Z"/>
<path fill="#171a1c" d="M 58.78 26.90 L 57.83 29.65 L 86.08 35.62 L 87.04 32.88 Z"/>
<path fill="#9ea19d" d="M 78.38 27.33 L 78.38 24.52 L 61.25 33.10 L 61.25 35.91 Z"/>
<path fill="#cdcecb" d="M 80.75 28.70 L 78.38 27.33 L 61.25 35.91 L 63.62 37.28 Z"/>
<path fill="#cdcecb" d="M 57.83 25.11 L 58.78 26.90 L 87.04 32.88 L 86.08 31.08 Z"/>
<path fill="#cdcecb" d="M 57.83 29.65 L 56.29 29.55 L 84.55 35.53 L 86.08 35.62 Z"/>
<path fill="#9ea19d" d="M 78.38 24.52 L 80.75 24.15 L 63.62 32.74 L 61.25 33.10 Z"/>
<path fill="#171a1c" d="M 82.21 26.73 L 80.75 28.70 L 63.62 37.28 L 65.09 35.32 Z"/>
<path fill="#9ea19d" d="M 56.29 26.75 L 57.83 25.11 L 86.08 31.08 L 84.55 32.72 Z"/>
<path fill="#cdcecb" d="M 80.75 24.15 L 82.21 26.73 L 65.09 35.32 L 63.62 32.74 Z"/>
<path fill="#9ea19d" d="M 56.29 29.55 L 56.29 26.75 L 84.55 32.72 L 84.55 35.53 Z"/>
<path fill="#9ea19d" d="M 69.85 23.99 L 68.55 22.88 L 71.37 22.14 L 74.41 22.78 L 73.47 23.93 Z"/>
<path fill="#a68b3c" d="M 100.18 187.49 L 100.18 81.30 L 101.71 80.53 L 101.71 186.72 Z"/>
<path fill="#9ea19d" d="M 87.04 32.88 L 86.08 35.62 L 84.55 35.53 L 84.55 32.72 L 86.08 31.08 Z"/>
<path fill="#9ea19d" d="M 65.09 35.32 L 63.62 37.28 L 61.25 35.91 L 61.25 33.10 L 63.62 32.74 Z"/>
<path fill="#8a90ae" d="M 194.06 114.52 L 221.00 120.22 L 216.35 122.55 L 189.41 116.85 Z"/>
<path fill="#666a8e" d="M 191.17 90.43 L 502.00 156.15 L 502.00 154.55 L 191.17 88.84 Z"/>
<path fill="#8a90ae" d="M 182.44 120.35 L 209.38 126.04 L 204.73 128.37 L 177.79 122.68 Z"/>
<path fill="#3f4468" d="M 292.92 110.16 L 296.65 110.95 L 238.54 140.08 L 234.81 139.29 Z"/>
<path fill="#8a90ae" d="M 326.72 121.86 L 353.66 127.56 L 349.01 129.89 L 322.07 124.19 Z"/>
<path fill="#8a90ae" d="M 315.10 127.69 L 342.04 133.38 L 337.39 135.71 L 310.45 130.02 Z"/>
<path fill="#666a8e" d="M 191.17 90.43 L 133.06 119.56 L 443.89 185.28 L 502.00 156.15 Z"/>
<path fill="#666a8e" d="M 191.17 88.84 L 502.00 154.55 L 443.89 183.69 L 133.06 117.97 Z"/>
<path fill="#3f4468" d="M 162.46 103.04 L 161.77 103.39 L 472.60 169.10 L 473.29 168.75 Z"/>
<path fill="#8a90ae" d="M 297.67 136.43 L 324.61 142.12 L 319.96 144.45 L 293.02 138.76 Z"/>
<path fill="#8a90ae" d="M 286.05 142.25 L 312.99 147.95 L 308.34 150.28 L 281.40 144.58 Z"/>
<path fill="#3f4468" d="M 396.53 132.06 L 400.26 132.85 L 342.15 161.98 L 338.42 161.19 Z"/>
<path fill="#8a90ae" d="M 430.33 143.77 L 457.27 149.46 L 452.62 151.79 L 425.68 146.10 Z"/>
<path fill="#666a8e" d="M 133.06 119.56 L 133.06 117.97 L 443.89 183.69 L 443.89 185.28 Z"/>
<path fill="#8a90ae" d="M 418.71 149.59 L 445.65 155.29 L 441.00 157.62 L 414.06 151.92 Z"/>
<path fill="#8a90ae" d="M 401.28 158.33 L 428.22 164.03 L 423.57 166.36 L 396.63 160.66 Z"/>
<path fill="#8a90ae" d="M 389.66 164.16 L 416.60 169.85 L 411.95 172.19 L 385.01 166.49 Z"/>
<path fill="#666a8e" d="M 502.00 156.15 L 443.89 185.28 L 443.89 183.69 L 502.00 154.55 Z"/>
</svg>
